<svg viewBox="0 0 64 64" xmlns="http://www.w3.org/2000/svg" xml:space="preserve" style="fill-rule:evenodd;clip-rule:evenodd;stroke-linecap:round;stroke-linejoin:round;stroke-miterlimit:2"><path style="fill:none" d="M0 0h64v64H0z"/><path d="M54.448 33a1.335 1.335 0 0 1 1.322 1.534l-.726 4.839A16 16 0 0 1 39.221 53H24.779A16 16 0 0 1 8.956 39.373l-.726-4.839A1.335 1.335 0 0 1 9.552 33z" style="fill:none;stroke:#444f58;stroke-width:2px"/><path d="M10.5 33s.335-4.618 3.662-5M47.5 45.284a15.1 15.1 0 0 1-9.6 3.432m5.1 3.787v1.37A3.13 3.13 0 0 1 39.872 57H24.128A3.127 3.127 0 0 1 21 53.873v-1.37M15.662 33a5.65 5.65 0 0 1 2.527-2.252 5.622 5.622 0 0 1 5.644-7.481 5.623 5.623 0 0 1 7.723-5.598 4.622 4.622 0 0 1 7.944 3.208 4.62 4.62 0 0 1-5.076 4.598 5.63 5.63 0 0 1-5.327 3.012A5.6 5.6 0 0 1 27.307 33" style="fill:none;stroke:#444f58;stroke-width:2px"/><path d="M22 33s-.35-5.557 7.9-10M52 33s-.688-4.299-4-4c0 0-2.097-5.241-6-3" style="fill:none;stroke:#444f58;stroke-width:2px"/><path d="M47 27s1.933-6.361-3-8m-3.5 12-1 1" style="fill:none;stroke:#444f58;stroke-width:2px"/></svg>